<mxfile host="app.diagrams.net" agent="Mozilla/5.0 (Macintosh; Intel Mac OS X 10_15_7) AppleWebKit/537.36 (KHTML, like Gecko) Chrome/139.0.0.0 Safari/537.36" version="28.2.0">
  <diagram id="98_-YopKsVhaZTTWU9En" name="Page-1">
    <mxGraphModel dx="1240" dy="1948" grid="1" gridSize="10" guides="1" tooltips="1" connect="1" arrows="1" fold="1" page="1" pageScale="1" pageWidth="827" pageHeight="1169" math="0" shadow="0">
      <root>
        <mxCell id="0" />
        <mxCell id="1" parent="0" />
        <mxCell id="F0gRG6pWzUZrUAnxOXtk-17" style="edgeStyle=orthogonalEdgeStyle;curved=1;rounded=0;orthogonalLoop=1;jettySize=auto;html=1;entryX=0;entryY=0.5;entryDx=0;entryDy=0;elbow=vertical;" parent="1" source="F0gRG6pWzUZrUAnxOXtk-1" target="F0gRG6pWzUZrUAnxOXtk-14" edge="1">
          <mxGeometry relative="1" as="geometry" />
        </mxCell>
        <mxCell id="F0gRG6pWzUZrUAnxOXtk-19" style="edgeStyle=orthogonalEdgeStyle;curved=1;rounded=0;orthogonalLoop=1;jettySize=auto;html=1;entryX=0;entryY=0.5;entryDx=0;entryDy=0;elbow=vertical;" parent="1" source="F0gRG6pWzUZrUAnxOXtk-1" target="F0gRG6pWzUZrUAnxOXtk-18" edge="1">
          <mxGeometry relative="1" as="geometry" />
        </mxCell>
        <mxCell id="F0gRG6pWzUZrUAnxOXtk-1" value="Web3.0" style="rounded=0;whiteSpace=wrap;html=1;" parent="1" vertex="1">
          <mxGeometry x="50" y="260" width="110" height="40" as="geometry" />
        </mxCell>
        <mxCell id="F0gRG6pWzUZrUAnxOXtk-2" value="密码学" style="rounded=0;whiteSpace=wrap;html=1;" parent="1" vertex="1">
          <mxGeometry x="480" y="-150" width="110" height="40" as="geometry" />
        </mxCell>
        <mxCell id="F0gRG6pWzUZrUAnxOXtk-3" value="分布式容错" style="rounded=0;whiteSpace=wrap;html=1;" parent="1" vertex="1">
          <mxGeometry x="730" y="100" width="110" height="40" as="geometry" />
        </mxCell>
        <mxCell id="F0gRG6pWzUZrUAnxOXtk-9" style="edgeStyle=orthogonalEdgeStyle;rounded=0;orthogonalLoop=1;jettySize=auto;html=1;entryX=0;entryY=0.5;entryDx=0;entryDy=0;elbow=vertical;curved=1;" parent="1" source="F0gRG6pWzUZrUAnxOXtk-4" target="F0gRG6pWzUZrUAnxOXtk-7" edge="1">
          <mxGeometry relative="1" as="geometry" />
        </mxCell>
        <mxCell id="F0gRG6pWzUZrUAnxOXtk-12" style="edgeStyle=orthogonalEdgeStyle;curved=1;rounded=0;orthogonalLoop=1;jettySize=auto;html=1;entryX=0;entryY=0.5;entryDx=0;entryDy=0;elbow=vertical;" parent="1" source="F0gRG6pWzUZrUAnxOXtk-4" target="F0gRG6pWzUZrUAnxOXtk-8" edge="1">
          <mxGeometry relative="1" as="geometry" />
        </mxCell>
        <mxCell id="F0gRG6pWzUZrUAnxOXtk-4" value="硬件进步" style="rounded=0;whiteSpace=wrap;html=1;" parent="1" vertex="1">
          <mxGeometry x="730" y="220" width="110" height="40" as="geometry" />
        </mxCell>
        <mxCell id="F0gRG6pWzUZrUAnxOXtk-5" value="HashCash" style="rounded=0;whiteSpace=wrap;html=1;" parent="1" vertex="1">
          <mxGeometry x="950" y="-180" width="110" height="40" as="geometry" />
        </mxCell>
        <mxCell id="F0gRG6pWzUZrUAnxOXtk-6" value="ECDSA" style="rounded=0;whiteSpace=wrap;html=1;" parent="1" vertex="1">
          <mxGeometry x="950" y="-120" width="110" height="40" as="geometry" />
        </mxCell>
        <mxCell id="F0gRG6pWzUZrUAnxOXtk-7" value="CPU计算能力" style="rounded=0;whiteSpace=wrap;html=1;" parent="1" vertex="1">
          <mxGeometry x="890" y="190" width="110" height="40" as="geometry" />
        </mxCell>
        <mxCell id="F0gRG6pWzUZrUAnxOXtk-8" value="网络通讯" style="rounded=0;whiteSpace=wrap;html=1;" parent="1" vertex="1">
          <mxGeometry x="890" y="250" width="110" height="40" as="geometry" />
        </mxCell>
        <mxCell id="F0gRG6pWzUZrUAnxOXtk-13" value="硬分叉" style="rounded=0;whiteSpace=wrap;html=1;" parent="1" vertex="1">
          <mxGeometry x="890" y="350" width="110" height="40" as="geometry" />
        </mxCell>
        <mxCell id="F0gRG6pWzUZrUAnxOXtk-23" style="edgeStyle=orthogonalEdgeStyle;curved=1;rounded=0;orthogonalLoop=1;jettySize=auto;html=1;entryX=0;entryY=0.5;entryDx=0;entryDy=0;elbow=vertical;" parent="1" source="F0gRG6pWzUZrUAnxOXtk-14" target="F0gRG6pWzUZrUAnxOXtk-20" edge="1">
          <mxGeometry relative="1" as="geometry" />
        </mxCell>
        <mxCell id="F0gRG6pWzUZrUAnxOXtk-14" value="&lt;span style=&quot;font-size: 12px;&quot;&gt;Ethereum&lt;/span&gt;" style="rounded=0;whiteSpace=wrap;html=1;" parent="1" vertex="1">
          <mxGeometry x="260" y="560" width="110" height="40" as="geometry" />
        </mxCell>
        <mxCell id="L_eL_teailExIP526OJV-1" style="edgeStyle=orthogonalEdgeStyle;rounded=0;orthogonalLoop=1;jettySize=auto;html=1;entryX=0;entryY=0.5;entryDx=0;entryDy=0;curved=1;" edge="1" parent="1" source="F0gRG6pWzUZrUAnxOXtk-18" target="F0gRG6pWzUZrUAnxOXtk-2">
          <mxGeometry relative="1" as="geometry" />
        </mxCell>
        <mxCell id="F0gRG6pWzUZrUAnxOXtk-18" value="BitCoin" style="rounded=0;whiteSpace=wrap;html=1;" parent="1" vertex="1">
          <mxGeometry x="270" y="80" width="110" height="40" as="geometry" />
        </mxCell>
        <mxCell id="F0gRG6pWzUZrUAnxOXtk-20" value="智能合约" style="rounded=0;whiteSpace=wrap;html=1;" parent="1" vertex="1">
          <mxGeometry x="420" y="505" width="110" height="40" as="geometry" />
        </mxCell>
        <mxCell id="F0gRG6pWzUZrUAnxOXtk-21" value="区块链1.0" style="text;html=1;strokeColor=none;fillColor=none;align=center;verticalAlign=middle;whiteSpace=wrap;rounded=0;" parent="1" vertex="1">
          <mxGeometry x="295" y="30" width="60" height="30" as="geometry" />
        </mxCell>
        <mxCell id="F0gRG6pWzUZrUAnxOXtk-22" value="区块链2.0" style="text;html=1;strokeColor=none;fillColor=none;align=center;verticalAlign=middle;whiteSpace=wrap;rounded=0;" parent="1" vertex="1">
          <mxGeometry x="285" y="510" width="60" height="30" as="geometry" />
        </mxCell>
        <mxCell id="F0gRG6pWzUZrUAnxOXtk-29" style="edgeStyle=orthogonalEdgeStyle;curved=1;rounded=0;orthogonalLoop=1;jettySize=auto;html=1;entryX=0;entryY=0.5;entryDx=0;entryDy=0;elbow=vertical;" parent="1" source="F0gRG6pWzUZrUAnxOXtk-24" target="F0gRG6pWzUZrUAnxOXtk-28" edge="1">
          <mxGeometry relative="1" as="geometry" />
        </mxCell>
        <mxCell id="F0gRG6pWzUZrUAnxOXtk-24" value="密码学" style="rounded=0;whiteSpace=wrap;html=1;" parent="1" vertex="1">
          <mxGeometry x="270" y="790" width="110" height="40" as="geometry" />
        </mxCell>
        <mxCell id="F0gRG6pWzUZrUAnxOXtk-25" value="分布式容错" style="rounded=0;whiteSpace=wrap;html=1;" parent="1" vertex="1">
          <mxGeometry x="270" y="930" width="110" height="40" as="geometry" />
        </mxCell>
        <mxCell id="F0gRG6pWzUZrUAnxOXtk-26" value="智能合约" style="rounded=0;whiteSpace=wrap;html=1;" parent="1" vertex="1">
          <mxGeometry x="270" y="1000" width="110" height="40" as="geometry" />
        </mxCell>
        <mxCell id="F0gRG6pWzUZrUAnxOXtk-27" value="数据结构与算法" style="rounded=0;whiteSpace=wrap;html=1;" parent="1" vertex="1">
          <mxGeometry x="270" y="1070" width="110" height="40" as="geometry" />
        </mxCell>
        <mxCell id="F0gRG6pWzUZrUAnxOXtk-28" value="对称加密" style="rounded=0;whiteSpace=wrap;html=1;" parent="1" vertex="1">
          <mxGeometry x="440" y="760" width="110" height="40" as="geometry" />
        </mxCell>
        <mxCell id="F0gRG6pWzUZrUAnxOXtk-30" value="单向散列" style="rounded=0;whiteSpace=wrap;html=1;" parent="1" vertex="1">
          <mxGeometry x="600" y="730" width="110" height="40" as="geometry" />
        </mxCell>
        <mxCell id="F0gRG6pWzUZrUAnxOXtk-31" value="分组加密" style="rounded=0;whiteSpace=wrap;html=1;" parent="1" vertex="1">
          <mxGeometry x="600" y="670" width="110" height="40" as="geometry" />
        </mxCell>
        <mxCell id="F0gRG6pWzUZrUAnxOXtk-32" value="数字签名" style="rounded=0;whiteSpace=wrap;html=1;" parent="1" vertex="1">
          <mxGeometry x="600" y="790" width="110" height="40" as="geometry" />
        </mxCell>
        <mxCell id="F0gRG6pWzUZrUAnxOXtk-33" value="PKI" style="rounded=0;whiteSpace=wrap;html=1;" parent="1" vertex="1">
          <mxGeometry x="600" y="850" width="110" height="40" as="geometry" />
        </mxCell>
      </root>
    </mxGraphModel>
  </diagram>
</mxfile>
